<svg width="260" height="262" viewBox="0 0 260 262" fill="none" xmlns="http://www.w3.org/2000/svg">
<path d="M65.5861 251.418C65.2992 251.431 65.0152 251.356 64.7725 251.202C64.5299 251.049 64.3403 250.824 64.2295 250.559C64.1188 250.294 64.0921 250.001 64.1532 249.721C64.2142 249.44 64.3601 249.185 64.571 248.99C64.6063 248.849 64.6316 248.748 64.667 248.608C64.3924 247.91 63.9158 247.311 63.2983 246.886C62.6808 246.461 61.9504 246.23 61.2009 246.223C60.4514 246.216 59.7169 246.433 59.0914 246.846C58.466 247.259 57.9782 247.85 57.6905 248.542C56.0305 252.429 53.8821 256.452 54.9505 260.733C47.893 245.772 50.2931 227.161 60.7231 214.367C63.6061 212.778 65.9428 209.956 66.5512 206.679C65.1244 207.162 63.3454 206.001 64.4182 204.498C64.8832 203.924 65.3527 203.353 65.8177 202.779C60.3977 197.005 53.9399 206.079 59.9057 213.872C57.9541 216.32 56.2637 218.964 54.8619 221.763C55.1856 218.791 54.7993 215.785 53.7347 212.991C52.6557 210.387 50.6332 208.194 48.8522 205.944C46.6868 203.201 42.2301 204.466 41.9387 207.947C43.9371 208.604 44.1967 211.491 41.9108 211.886C42.5095 218.361 46.7383 224.311 52.5626 227.15C50.4118 233.187 49.5719 239.613 50.099 245.999C49.0709 238.535 41.0607 236.724 35.462 233.757C35.1056 233.529 34.6905 233.409 34.2672 233.412C33.8439 233.415 33.4307 233.542 33.0781 233.776C32.7254 234.011 32.4486 234.342 32.2813 234.731C32.114 235.12 32.0635 235.55 32.1359 235.967C32.9087 236.281 33.6483 236.671 34.3439 237.132C34.6698 237.351 34.92 237.666 35.0602 238.033C35.2003 238.4 35.2235 238.801 35.1267 239.182C35.0298 239.563 34.8176 239.904 34.5191 240.159C34.2206 240.415 33.8505 240.572 33.4594 240.608C36.2816 247.595 43.5779 252.286 51.0717 252.26C51.7918 255.39 52.8353 258.437 54.1851 261.351H65.3074C65.3473 261.227 65.3832 261.1 65.419 260.976C64.3895 261.041 63.356 260.979 62.3414 260.793C65.0652 257.567 67.1717 255.921 65.5864 251.418L65.5861 251.418Z" fill="#F2F2F2"/>
<path d="M164.743 251.418C165.03 251.431 165.314 251.356 165.557 251.202C165.8 251.049 165.989 250.824 166.1 250.559C166.211 250.294 166.237 250.001 166.176 249.721C166.115 249.44 165.969 249.185 165.759 248.99C165.723 248.849 165.698 248.748 165.663 248.608C165.937 247.91 166.414 247.311 167.031 246.886C167.649 246.461 168.379 246.23 169.129 246.223C169.878 246.216 170.613 246.433 171.238 246.846C171.864 247.259 172.351 247.85 172.639 248.542C174.299 252.429 176.447 256.452 175.379 260.733C182.436 245.772 180.036 227.161 169.606 214.367C166.723 212.778 164.387 209.956 163.778 206.679C165.205 207.162 166.984 206.001 165.911 204.498C165.446 203.924 164.977 203.353 164.512 202.779C169.932 197.005 176.39 206.079 170.424 213.872C172.375 216.32 174.066 218.964 175.468 221.763C175.144 218.791 175.53 215.785 176.595 212.991C177.674 210.387 179.696 208.194 181.477 205.944C183.643 203.201 188.099 204.466 188.391 207.947C186.392 208.604 186.133 211.491 188.419 211.886C187.82 218.361 183.591 224.311 177.767 227.15C179.918 233.187 180.758 239.613 180.231 245.999C181.259 238.535 189.269 236.724 194.868 233.757C195.224 233.529 195.639 233.409 196.062 233.412C196.486 233.415 196.899 233.542 197.251 233.776C197.604 234.011 197.881 234.342 198.048 234.731C198.216 235.12 198.266 235.55 198.194 235.967C197.421 236.281 196.681 236.671 195.986 237.132C195.66 237.351 195.409 237.666 195.269 238.033C195.129 238.4 195.106 238.801 195.203 239.182C195.3 239.563 195.512 239.904 195.81 240.159C196.109 240.415 196.479 240.572 196.87 240.608C194.048 247.595 186.752 252.286 179.258 252.26C178.538 255.39 177.494 258.437 176.144 261.351H165.022C164.982 261.227 164.946 261.1 164.91 260.976C165.94 261.041 166.974 260.979 167.988 260.793C165.264 257.567 163.158 255.921 164.743 251.418L164.743 251.418Z" fill="#F2F2F2"/>
<path d="M168.867 253.07L164.078 254.16L157.594 236.198L164.664 234.59L168.867 253.07Z" fill="#A0616A"/>
<path d="M170.173 258.029L155.444 261.382L155.401 261.195C155.055 259.674 155.328 258.078 156.158 256.758C156.989 255.438 158.309 254.502 159.83 254.156L159.83 254.156L162.056 251.502L167.541 252.401L168.826 252.108L170.173 258.029Z" fill="#2F2E41"/>
<path d="M246.135 165.521L248.768 169.668L234.027 181.803L230.14 175.68L246.135 165.521Z" fill="#A0616A"/>
<path d="M250.368 162.626L258.467 175.382L258.305 175.484C256.989 176.32 255.394 176.599 253.872 176.259C252.351 175.92 251.026 174.989 250.19 173.672L250.19 173.672L246.943 172.465L245.951 166.995L245.244 165.882L250.368 162.626Z" fill="#2F2E41"/>
<path d="M93.4521 121.175L92.269 114.316L110.255 106.193L114.139 99.3139C114.014 98.7103 114.057 98.0838 114.266 97.5035C114.474 96.9232 114.838 96.4118 115.319 96.0258C115.799 95.6397 116.377 95.394 116.989 95.3158C117.6 95.2376 118.221 95.33 118.783 95.5827C119.346 95.8355 119.827 96.2387 120.174 96.7479C120.522 97.2571 120.722 97.8525 120.752 98.4683C120.783 99.084 120.642 99.6962 120.347 100.237C120.051 100.778 119.612 101.227 119.077 101.534L112.688 111.415L93.4521 121.175Z" fill="#A0616A"/>
<path d="M87.9846 115.568L96.0841 111.43L98.2282 119.483L92.6023 123.654L87.9846 115.568Z" fill="#22B02E"/>
<path d="M69.8098 252.446L74.7069 252.446L77.0367 233.551L69.8086 233.552L69.8098 252.446Z" fill="#A0616A"/>
<path d="M76.3367 252.887V249.566L75.0492 249.645L69.8083 249.955L68.5954 250.03L67.6681 261.152L67.6184 261.748H71.0958L71.2075 261.156L71.7126 258.465L73.0166 261.156L73.3022 261.748H82.5214C83.07 261.745 83.5951 261.525 83.9826 261.137C84.3702 260.748 84.5889 260.223 84.5912 259.674C84.9804 257.856 77.3136 253.926 76.3367 252.887Z" fill="#2F2E41"/>
<path d="M11.677 177.462L10.5354 182.226L28.3614 188.897L30.0461 181.866L11.677 177.462Z" fill="#A0616A"/>
<path d="M10.1142 183.708L13.3427 184.482L13.5664 183.211L14.4865 178.041L14.6968 176.844L4.10021 173.349L3.5321 173.161L2.72132 176.544L3.27092 176.791L5.76981 177.909L2.84912 178.55L2.20685 178.69L0.057317 187.657C-0.0672181 188.192 0.0240414 188.754 0.311296 189.221C0.598552 189.689 1.0586 190.024 1.59153 190.154C3.26805 190.957 8.87595 184.415 10.1142 183.708Z" fill="#2F2E41"/>
<path d="M77.3821 130.162L71.0784 127.215L58.5078 142.431L50.8508 144.368C50.3017 144.088 49.6859 143.966 49.0714 144.014C48.4569 144.062 47.8677 144.279 47.3688 144.641C46.8699 145.003 46.4808 145.496 46.2444 146.065C46.0081 146.635 45.9336 147.258 46.0293 147.867C46.1251 148.476 46.3872 149.047 46.7869 149.516C47.1865 149.986 47.7081 150.336 48.2939 150.527C48.8798 150.719 49.5072 150.744 50.1068 150.601C50.7064 150.459 51.2549 150.153 51.6917 149.718L62.9039 146.154L77.3821 130.162Z" fill="#A0616A"/>
<path d="M166.75 73.8324C165.414 73.8324 164.108 73.4361 162.997 72.6936C161.886 71.9511 161.02 70.8957 160.508 69.6609C159.997 68.4261 159.863 67.0674 160.124 65.7566C160.385 64.4458 161.028 63.2417 161.973 62.2966C162.918 61.3516 164.121 60.708 165.432 60.4472C166.742 60.1865 168.101 60.3203 169.335 60.8318C170.57 61.3432 171.625 62.2094 172.367 63.3206C173.11 64.4319 173.506 65.7384 173.506 67.0749C173.504 68.8665 172.791 70.5841 171.525 71.851C170.258 73.1178 168.541 73.8304 166.75 73.8324ZM166.75 61.0929C165.567 61.0929 164.411 61.4437 163.427 62.101C162.444 62.7584 161.677 63.6926 161.225 64.7857C160.772 65.8788 160.654 67.0815 160.884 68.2419C161.115 69.4023 161.685 70.4682 162.521 71.3048C163.357 72.1415 164.423 72.7112 165.583 72.942C166.743 73.1728 167.946 73.0544 169.039 72.6016C170.131 72.1488 171.065 71.3821 171.723 70.3983C172.38 69.4146 172.73 68.258 172.73 67.0749C172.729 65.4889 172.098 63.9684 170.977 62.847C169.856 61.7255 168.336 61.0947 166.75 61.0929Z" fill="#E6E6E6"/>
<path d="M166.273 69.6205C166.26 69.6205 166.246 69.62 166.232 69.6194C166.112 69.6136 165.995 69.5819 165.889 69.5265C165.782 69.4712 165.689 69.3934 165.615 69.2985L164.551 67.93C164.484 67.8436 164.434 67.7448 164.405 67.6393C164.376 67.5338 164.368 67.4236 164.382 67.3149C164.395 67.2063 164.43 67.1014 164.484 67.0063C164.538 66.9111 164.611 66.8276 164.697 66.7604L164.735 66.7306C164.822 66.6633 164.92 66.6137 165.026 66.5847C165.131 66.5556 165.242 66.5477 165.35 66.5612C165.459 66.5748 165.564 66.6097 165.659 66.6638C165.754 66.718 165.838 66.7903 165.905 66.8768C165.958 66.9458 166.027 67.0024 166.104 67.0427C166.182 67.083 166.267 67.1061 166.355 67.1104C166.442 67.1146 166.529 67.1 166.61 67.0674C166.692 67.0348 166.765 66.9851 166.825 66.9216L168.986 64.6398C169.138 64.4796 169.347 64.3862 169.568 64.3802C169.789 64.3742 170.003 64.456 170.164 64.6078L170.199 64.6416C170.279 64.7168 170.343 64.807 170.387 64.907C170.432 65.0069 170.456 65.1147 170.459 65.2241C170.462 65.3335 170.444 65.4424 170.404 65.5446C170.365 65.6469 170.306 65.7403 170.231 65.8198L166.878 69.3602C166.8 69.4424 166.706 69.5079 166.602 69.5526C166.498 69.5974 166.386 69.6205 166.273 69.6205Z" fill="#E6E6E6"/>
<path d="M133.025 155.647C131.688 155.647 130.382 155.25 129.271 154.508C128.16 153.765 127.294 152.71 126.783 151.475C126.272 150.24 126.138 148.882 126.399 147.571C126.659 146.26 127.303 145.056 128.248 144.111C129.192 143.166 130.396 142.522 131.707 142.261C133.017 142.001 134.375 142.135 135.61 142.646C136.844 143.157 137.9 144.024 138.642 145.135C139.384 146.246 139.78 147.553 139.78 148.889C139.778 150.681 139.066 152.398 137.799 153.665C136.533 154.932 134.816 155.645 133.025 155.647ZM133.025 142.907C131.842 142.907 130.686 143.258 129.702 143.915C128.719 144.573 127.952 145.507 127.499 146.6C127.047 147.693 126.928 148.896 127.159 150.056C127.39 151.217 127.959 152.282 128.796 153.119C129.632 153.956 130.698 154.525 131.858 154.756C133.018 154.987 134.22 154.869 135.313 154.416C136.406 153.963 137.34 153.196 137.997 152.213C138.654 151.229 139.005 150.072 139.005 148.889C139.003 147.303 138.373 145.783 137.251 144.661C136.13 143.54 134.61 142.909 133.025 142.907Z" fill="#E6E6E6"/>
<path d="M132.548 151.435C132.534 151.435 132.521 151.434 132.507 151.434C132.387 151.428 132.27 151.396 132.163 151.341C132.057 151.286 131.963 151.208 131.89 151.113L130.826 149.744C130.758 149.658 130.709 149.559 130.68 149.454C130.651 149.348 130.643 149.238 130.656 149.129C130.67 149.021 130.705 148.916 130.759 148.821C130.813 148.726 130.885 148.642 130.972 148.575L131.01 148.545C131.096 148.478 131.195 148.428 131.301 148.399C131.406 148.37 131.516 148.362 131.625 148.376C131.734 148.389 131.838 148.424 131.934 148.478C132.029 148.532 132.112 148.605 132.179 148.691C132.233 148.76 132.301 148.817 132.379 148.857C132.456 148.897 132.542 148.921 132.629 148.925C132.717 148.929 132.804 148.914 132.885 148.882C132.966 148.849 133.039 148.8 133.1 148.736L135.26 146.454C135.413 146.294 135.622 146.201 135.843 146.195C136.064 146.189 136.278 146.27 136.439 146.422L136.474 146.456C136.553 146.531 136.617 146.621 136.662 146.721C136.706 146.821 136.731 146.929 136.734 147.039C136.737 147.148 136.718 147.257 136.679 147.359C136.64 147.461 136.581 147.555 136.506 147.634L133.152 151.175C133.075 151.257 132.981 151.322 132.877 151.367C132.773 151.412 132.661 151.435 132.548 151.435Z" fill="#E6E6E6"/>
<path d="M58.9838 64.5265C57.6477 64.5265 56.3415 64.1302 55.2305 63.3877C54.1195 62.6452 53.2536 61.5898 52.7423 60.355C52.231 59.1202 52.0972 57.7615 52.3578 56.4507C52.6185 55.1398 53.2619 53.9358 54.2068 52.9907C55.1516 52.0457 56.3554 51.4021 57.6659 51.1413C58.9764 50.8806 60.3347 51.0144 61.5692 51.5259C62.8037 52.0373 63.8588 52.9035 64.6011 54.0147C65.3435 55.126 65.7397 56.4325 65.7397 57.769C65.7377 59.5606 65.0253 61.2782 63.7587 62.5451C62.4922 63.8119 60.775 64.5245 58.9838 64.5265ZM58.9838 51.787C57.801 51.787 56.6447 52.1378 55.6613 52.7951C54.6778 53.4524 53.9112 54.3867 53.4586 55.4798C53.0059 56.5729 52.8875 57.7756 53.1182 58.936C53.349 60.0964 53.9186 61.1623 54.755 61.9989C55.5914 62.8355 56.657 63.4053 57.8171 63.6361C58.9772 63.8669 60.1797 63.7484 61.2725 63.2957C62.3653 62.8429 63.2993 62.0762 63.9565 61.0924C64.6136 60.1087 64.9644 58.9521 64.9644 57.769C64.9626 56.183 64.3319 54.6625 63.2107 53.5411C62.0896 52.4196 60.5694 51.7888 58.9838 51.787Z" fill="#E6E6E6"/>
<path d="M58.5071 60.3148C58.4935 60.3148 58.4799 60.3144 58.4663 60.3137C58.3464 60.3079 58.2291 60.2762 58.1226 60.2209C58.016 60.1655 57.9227 60.0877 57.849 59.9929L56.7848 58.6243C56.7176 58.5379 56.668 58.4392 56.639 58.3336C56.61 58.2281 56.602 58.1179 56.6156 58.0093C56.6291 57.9007 56.6639 57.7958 56.718 57.7006C56.7721 57.6055 56.8444 57.5219 56.9308 57.4547L56.9691 57.4249C57.0555 57.3577 57.1542 57.3081 57.2598 57.279C57.3653 57.25 57.4755 57.242 57.5842 57.2556C57.6928 57.2692 57.7976 57.304 57.8928 57.3581C57.9879 57.4123 58.0715 57.4846 58.1386 57.5711C58.1924 57.6401 58.2604 57.6967 58.338 57.7371C58.4157 57.7774 58.5011 57.8005 58.5885 57.8047C58.6759 57.809 58.7631 57.7943 58.8443 57.7617C58.9255 57.7291 58.9987 57.6794 59.0589 57.6159L61.2197 55.3341C61.3718 55.1739 61.5813 55.0805 61.8021 55.0745C62.023 55.0685 62.2372 55.1504 62.3978 55.3021L62.4332 55.3359C62.5126 55.4112 62.5765 55.5013 62.6211 55.6013C62.6657 55.7012 62.6902 55.809 62.6931 55.9184C62.6961 56.0278 62.6774 56.1368 62.6383 56.239C62.5992 56.3412 62.5403 56.4347 62.465 56.5141L59.1117 60.0545C59.0339 60.1367 58.9402 60.2022 58.8362 60.247C58.7322 60.2917 58.6202 60.3148 58.5071 60.3148Z" fill="#E6E6E6"/>
<path d="M113.071 180.772C97.405 180.772 79.401 163.383 63.4718 171.645C15.2427 196.66 21.8817 154.801 8.02588 139.234L8.48077 138.321C23.7691 152.033 42.8571 163.189 63.6813 170.583C82.4998 177.266 101.459 180.362 118.504 179.545L118.533 180.642C116.733 180.729 114.912 180.772 113.071 180.772Z" fill="#F2F2F2"/>
<path d="M91.5812 63.2038C93.3898 63.2038 94.8558 61.2373 94.8558 58.8116C94.8558 56.3859 93.3898 54.4194 91.5812 54.4194C89.7727 54.4194 88.3066 56.3859 88.3066 58.8116C88.3066 61.2373 89.7727 63.2038 91.5812 63.2038Z" fill="#E6E6E6"/>
<path d="M129.403 131.722C127.906 132.72 126.373 130.345 127.899 129.392C129.396 128.394 130.929 130.769 129.403 131.722Z" fill="#E6E6E6"/>
<path d="M120.786 51.7755C123.141 51.7755 125.05 49.8659 125.05 47.5103C125.05 45.1547 123.141 43.2451 120.786 43.2451C118.431 43.2451 116.521 45.1547 116.521 47.5103C116.521 49.8659 118.431 51.7755 120.786 51.7755Z" fill="#BDB76B"/>
<path opacity="0.3" d="M135.7 70.8833L159.964 0L133.32 70.0348C133.189 70.201 133.098 70.3963 133.057 70.6044C133.016 70.8125 133.025 71.0274 133.083 71.2314C133.142 71.4353 133.248 71.6224 133.393 71.7771C133.538 71.9318 133.718 72.0496 133.918 72.1209C134.118 72.1921 134.332 72.2147 134.542 72.1867C134.752 72.1588 134.953 72.081 135.127 71.9601C135.301 71.8391 135.444 71.6783 135.544 71.491C135.643 71.3038 135.697 71.0954 135.7 70.8833H135.7Z" fill="#F0F0F0"/>
<path d="M111.208 157.24C113.5 157.24 115.357 155.382 115.357 153.09C115.357 150.798 113.5 148.94 111.208 148.94C108.917 148.94 107.06 150.798 107.06 153.09C107.06 155.382 108.917 157.24 111.208 157.24Z" fill="#F2F2F2"/>
<path d="M71.0268 154.673C71.0268 154.673 60.6841 161.409 63.4189 165.886C63.5133 166.04 51.0647 182.485 51.0647 182.485L27.5648 180.993L26.7368 188.861L47.6581 194.921C47.6581 194.921 52.7763 198.683 56.7302 194.539C60.6841 190.395 73.8542 177.704 73.8542 177.704L74.4894 203.325L67.8781 238.829L77.7496 238.202L87.3576 202.584L90.9041 162.237L71.0268 154.673Z" fill="#2F2E41"/>
<path d="M78.3939 114.243L74.0446 117.54L69.0873 128.123L73.8541 134.599C73.8541 134.599 77.8639 141.55 71.4457 148.281C65.0275 155.013 60.099 162.203 65.2361 161.946C70.3733 161.689 91.1794 172.274 91.3163 163.602C91.4532 154.93 91.7303 148.281 91.7303 148.281L97.1852 134.442C97.1852 134.442 100.435 126.187 98.1534 123.715C95.8716 121.244 92.8166 118.086 92.8166 118.086L87.2608 112.529H82.2442L78.3939 114.243Z" fill="#22B02E"/>
<path d="M86.513 93.9093C96.2703 99.463 88.26 114.116 78.3209 108.898C68.564 103.345 76.5742 88.6916 86.513 93.9093Z" fill="#A0616A"/>
<path d="M91.7304 96.9888C91.0467 97.8783 89.6184 97.4612 86.8211 98.0959C86.8273 97.1475 86.7177 96.2019 86.495 95.2801C86.2869 96.4214 85.8308 97.5032 85.1589 98.449C82.73 98.7184 85.7075 106.099 84.4639 111.526C82.8615 100.077 79.4913 103.077 81.1939 105.347C82.2839 106.801 81.5572 111.162 78.2873 108.982C72.892 111.546 65.2075 98.8059 73.7243 92.8308C73.5721 89.6011 77.1649 89.0909 79.3773 90.0838C84.7464 86.0832 90.8806 91.2094 91.7304 96.9888Z" fill="#2F2E41"/>
<path d="M66.6954 88.635C64.5231 101.995 52.8796 86.1781 47.4049 99.3252C45.6836 104.086 48.6369 107.492 50.5051 111.444C50.9314 114.692 46.7074 116.34 46.2649 119.329C46.1418 126.183 57.1966 125.764 60.287 121.44C63.4624 116.913 59.6705 110.84 61.5792 105.981C64.2618 99.2351 75.1715 99.185 76.1219 91.3369C74.2813 88.715 69.3318 85.7122 66.6954 88.635Z" fill="#2F2E41"/>
<path d="M75.4955 89.9407C75.4245 89.9706 75.3534 90.0005 75.2898 90.0342H75.2861C75.2262 90.0642 75.1664 90.0941 75.1066 90.1277C75.0991 90.1315 75.0953 90.1352 75.0879 90.139C75.0093 90.0642 74.9308 89.9893 74.8485 89.9145C74.8272 90.0364 74.8323 90.1614 74.8634 90.2811L74.8747 90.326C74.9495 90.4046 75.028 90.4794 75.1103 90.558C75.1851 90.5019 75.2562 90.442 75.331 90.3859C75.3759 90.3485 75.4208 90.3111 75.4694 90.2737C75.4769 90.1764 75.4881 90.0641 75.4993 89.9407L75.4955 89.9407ZM77.7472 85.7804C76.079 85.3987 75.5404 87.5799 75.3796 88.6312C74.7737 84.8151 72.2527 86.0161 73.1242 88.62C73.402 89.3909 73.8391 90.0946 74.4071 90.6852C74.4857 90.775 74.5717 90.8648 74.6615 90.9546C74.5605 91.4783 75.0692 91.3437 75.7574 90.861C76.2656 90.4995 76.7355 90.0871 77.16 89.6301C78.5327 88.1898 79.6025 86.263 77.7472 85.7804ZM77.7996 87.9279C77.2849 88.5917 76.7075 89.2044 76.0753 89.7574C75.8771 89.9369 75.6751 90.109 75.4694 90.2737C75.4656 90.3073 75.4656 90.3372 75.4619 90.3634C75.4475 90.3998 75.4299 90.4348 75.4095 90.4682C75.2001 90.8461 74.9644 90.6403 74.8747 90.3261C74.8672 90.3148 74.856 90.3036 74.8485 90.2924C74.5496 89.9835 74.2896 89.6393 74.0742 89.2673C72.5294 86.5885 75.0168 84.7665 74.8934 89.7686C74.8706 89.8145 74.8555 89.8637 74.8485 89.9145C74.8272 90.0364 74.8323 90.1614 74.8634 90.2811L74.8747 90.3261C74.9495 90.4046 75.028 90.4794 75.1103 90.558C75.1851 90.5019 75.2562 90.442 75.331 90.3859C75.3759 90.3485 75.4208 90.3111 75.4694 90.2737C75.4769 90.1764 75.4881 90.0642 75.4993 89.9407V89.9369C75.5965 88.9343 75.8621 87.131 76.3521 86.6409C77.4293 85.814 78.8245 86.7082 77.7996 87.9279ZM75.4955 89.9407C75.4245 89.9706 75.3534 90.0005 75.2898 90.0342H75.2861C75.2262 90.0642 75.1664 90.0941 75.1066 90.1277C75.0991 90.1315 75.0953 90.1352 75.0879 90.139C75.0093 90.0642 74.9308 89.9893 74.8485 89.9145C74.8272 90.0364 74.8323 90.1614 74.8634 90.2811L74.8747 90.326C74.9495 90.4046 75.028 90.4794 75.1103 90.558C75.1851 90.5019 75.2562 90.442 75.331 90.3859C75.3759 90.3485 75.4208 90.3111 75.4694 90.2737C75.4769 90.1764 75.4881 90.0641 75.4993 89.9407L75.4955 89.9407Z" fill="#2F2E41"/>
<path d="M165.679 163.596L162.076 172.997L145.171 206.351L160.025 245.151L167.691 243.127L161.372 206.351L179.5 184.319L201.029 198.924C201.029 198.924 210.576 206.38 214.209 199.312C217.841 192.244 241.344 177.21 241.344 177.21L235.529 171.006L208.464 183.675L189.784 157.375L165.679 163.596Z" fill="#2F2E41"/>
<path d="M183.862 119.256L177.93 112.881L167.754 111.481L155.286 120.212L155.412 129.876L161.575 152.648C161.575 152.648 159.228 169.008 165.785 168.844C172.343 168.68 175.917 165.41 178.588 166.075C181.258 166.741 192.612 169.574 193.331 166.607C194.051 163.639 197.875 165.764 197.708 162.957C197.54 160.149 187.354 139.914 187.354 139.914L189.886 119.677L183.862 119.256Z" fill="#22B02E"/>
<path d="M221.422 89.9114C221.475 90.4401 221.412 90.974 221.236 91.4755C221.061 91.977 220.777 92.4339 220.406 92.814C220.035 93.1941 219.585 93.4882 219.088 93.6756C218.591 93.863 218.059 93.9391 217.529 93.8985L203.888 119.849L200.225 114.225L214.169 89.7336C214.296 88.8481 214.743 88.0401 215.426 87.4625C216.109 86.885 216.98 86.5781 217.874 86.6C218.768 86.6219 219.623 86.9711 220.277 87.5814C220.931 88.1917 221.338 89.0208 221.422 89.9114Z" fill="#A0616A"/>
<path d="M178.477 124.081C178.477 124.081 177.935 128.697 183.131 129.84C188.326 130.983 202.72 122.756 205.079 121.5C205.818 121.107 206.821 119.178 207.849 116.714C208.311 115.608 208.778 114.394 209.229 113.163C209.49 112.451 210.74 112.256 210.985 111.549C211.23 110.847 210.471 109.632 210.693 108.969C211.744 105.826 212.488 103.332 212.488 103.332L209.045 96.8618C204.229 99.4084 201.759 105.018 199.942 111.48L178.477 124.081Z" fill="#22B02E"/>
<path d="M117.802 95.8706C117.883 96.3958 118.078 96.8968 118.373 97.3384C118.669 97.78 119.057 98.1514 119.512 98.4265C119.966 98.7017 120.476 98.8738 121.004 98.9308C121.532 98.9877 122.066 98.9282 122.569 98.7563L142.269 120.466L144.408 114.105L124.78 93.8828C124.436 93.0573 123.8 92.3869 122.994 91.9987C122.189 91.6105 121.269 91.5314 120.408 91.7765C119.548 92.0215 118.808 92.5736 118.328 93.3282C117.847 94.0828 117.66 94.9874 117.802 95.8706Z" fill="#A0616A"/>
<path d="M167.93 118.203C167.93 118.203 169.609 122.537 164.865 124.944C160.121 127.351 144.127 122.989 141.528 122.363C140.714 122.167 139.261 120.551 137.649 118.423C136.925 117.468 136.169 116.41 135.424 115.33C134.993 114.706 133.735 114.83 133.32 114.208C132.908 113.589 133.338 112.222 132.958 111.636C131.154 108.856 129.809 106.628 129.809 106.628L131.524 99.5017C136.824 100.762 140.619 105.574 143.994 111.377L167.93 118.203Z" fill="#22B02E"/>
<path d="M173.045 109.859C178.393 109.859 182.727 105.524 182.727 100.175C182.727 94.8266 178.393 90.4907 173.045 90.4907C167.698 90.4907 163.364 94.8266 163.364 100.175C163.364 105.524 167.698 109.859 173.045 109.859Z" fill="#A0616A"/>
<path d="M184.097 94.6298C183.079 93.0538 181.168 92.0035 179.315 92.2986C179.143 91.1159 178.649 90.0032 177.888 89.0817C177.127 88.1601 176.128 87.465 175 87.0721C173.871 86.6792 172.657 86.6034 171.488 86.8532C170.32 87.1029 169.242 87.6685 168.373 88.4885C168.087 88.2871 167.754 88.163 167.406 88.1282C167.058 88.0934 166.707 88.149 166.387 88.2897C165.749 88.5797 165.194 89.0251 164.773 89.5851C163.71 90.9112 163.026 92.5009 162.795 94.1848C162.563 95.8688 162.792 97.5841 163.458 99.1481C163.232 98.3247 164.057 97.5501 164.89 97.3654C165.724 97.1806 166.598 97.3554 167.443 97.2351C168.526 97.0809 169.5 96.4523 170.585 96.3108C171.505 96.251 172.428 96.3696 173.303 96.6602C174.178 96.9507 175.1 97.0745 176.02 97.0251C176.934 96.9167 178.11 100.378 178.094 102.816C178.091 103.279 178.186 103.872 178.638 103.97C179.194 104.091 179.516 103.323 180.045 103.114C180.289 103.044 180.55 103.071 180.774 103.191C180.998 103.31 181.167 103.511 181.246 103.753C181.312 103.998 181.319 104.256 181.266 104.504C181.213 104.753 181.102 104.985 180.941 105.182C180.616 105.572 180.23 105.907 179.797 106.174L180.015 106.356C180.222 106.574 180.499 106.714 180.797 106.751C181.096 106.788 181.398 106.72 181.652 106.559C182.152 106.221 182.557 105.76 182.828 105.22C183.849 103.641 184.579 101.891 184.983 100.053C185.325 98.2083 185.116 96.2058 184.097 94.6298Z" fill="#2F2E41"/>
<path d="M255.724 132.825C243.236 142.286 218.387 139.298 210.676 155.503C187.329 204.571 167.355 167.193 146.913 163.151L146.725 162.149C167.189 163.847 189.139 161.213 210.203 154.531C229.238 148.493 246.221 139.511 259.314 128.567L260 129.423C258.618 130.58 257.192 131.714 255.724 132.825Z" fill="#F2F2F2"/>
<path d="M202.924 261.339C202.627 262.22 32.8085 262.22 32.4875 261.341C32.7846 260.458 202.603 260.458 202.924 261.339Z" fill="#CCCCCC"/>
</svg>
